<svg xmlns="http://www.w3.org/2000/svg" width="107.713" height="35.155" viewBox="0 0 107.713 35.155">
  <g id="logo" transform="translate(-3.43 -3.16)">
    <g id="Groupe_1" data-name="Groupe 1" transform="translate(3.43 3.16)">
      <path id="Tracé_1" data-name="Tracé 1" d="M8.7,22V5.85H3.43V38.162H19.044V22H8.7Zm5.071,10.885H8.687V27.258h5.081Z" transform="translate(-3.43 -3.222)" fill="#d61016"/>
      <path id="Tracé_2" data-name="Tracé 2" d="M27.424,14.045h0V8.426L22.167,3.16H11.82V8.426h0V19.311H22.167V35.462h5.257V19.311h0Zm-10.337,0V8.426h5.081v5.618Z" transform="translate(-3.622 -3.16)" fill="#d61016"/>
    </g>
    <g id="Groupe_2" data-name="Groupe 2" transform="translate(30.524 11.455)">
      <path id="Tracé_3" data-name="Tracé 3" d="M45.776,18.067A2.99,2.99,0,0,0,46.938,17a2.918,2.918,0,0,0,.41-1.544,2.617,2.617,0,0,0-1.163-2.247,5.71,5.71,0,0,0-3.322-.831H37.07V24.232H43.2a6.185,6.185,0,0,0,3.527-.84A2.729,2.729,0,0,0,47.935,21a3,3,0,0,0-.576-1.856A3.129,3.129,0,0,0,45.776,18.067ZM39.8,14.442h2.726a2.8,2.8,0,0,1,1.544.352,1.3,1.3,0,0,1,0,2.091,2.776,2.776,0,0,1-1.544.352H39.8Zm4.837,7.367A3.067,3.067,0,0,1,43,22.161h-3.2V19.229H43c1.456,0,2.179.489,2.179,1.475A1.228,1.228,0,0,1,44.633,21.809Z" transform="translate(-31.295 -11.667)" fill="#1c1c1c"/>
      <path id="Tracé_4" data-name="Tracé 4" d="M53.8,15.05a8.245,8.245,0,0,0-2.14.283,5.573,5.573,0,0,0-1.788.811l.948,1.847a3.526,3.526,0,0,1,1.192-.616,4.487,4.487,0,0,1,1.427-.225,2.293,2.293,0,0,1,1.573.469,1.68,1.68,0,0,1,.528,1.329h-2.1a4.912,4.912,0,0,0-2.951.723,2.384,2.384,0,0,0-.958,1.993,2.564,2.564,0,0,0,.41,1.427,2.705,2.705,0,0,0,1.172.977,4.37,4.37,0,0,0,1.817.352,2.931,2.931,0,0,0,2.775-1.27v1.133h2.472v-5.2a3.866,3.866,0,0,0-1.133-3.039A4.706,4.706,0,0,0,53.8,15.05Zm1.739,6.361a1.665,1.665,0,0,1-.743.918,2.344,2.344,0,0,1-1.2.313,1.818,1.818,0,0,1-1.094-.293.956.956,0,0,1-.4-.8c0-.713.537-1.065,1.622-1.065h1.808v.928Z" transform="translate(-31.581 -11.728)" fill="#1c1c1c"/>
      <path id="Tracé_5" data-name="Tracé 5" d="M63.468,19.789a2.535,2.535,0,0,1,.6-1.837,2.1,2.1,0,0,1,1.593-.616,1.712,1.712,0,0,1,1.368.537,2.388,2.388,0,0,1,.479,1.612v4.807h2.638V19.076A4.021,4.021,0,0,0,69.1,16.066,3.757,3.757,0,0,0,66.36,15.05a4.628,4.628,0,0,0-1.71.313,3.425,3.425,0,0,0-1.3.889V15.187H60.83v9.106h2.638v-4.5Z" transform="translate(-31.84 -11.728)" fill="#1c1c1c"/>
      <path id="Tracé_6" data-name="Tracé 6" d="M82.786,24.215l-4.133-5.247,3.791-3.859H79.3l-3.859,3.654V11.65H72.8V24.215h2.638V21.89l1.27-1.251,2.882,3.576Z" transform="translate(-32.115 -11.65)" fill="#1c1c1c"/>
      <path id="Tracé_7" data-name="Tracé 7" d="M44.935,27.388A6.539,6.539,0,0,0,42.2,26.86H37.07V38.712h2.746V35.448H42.2a6.732,6.732,0,0,0,2.736-.518,3.975,3.975,0,0,0,1.788-1.495,4.1,4.1,0,0,0-1.788-6.048Zm-1.006,5.3a2.9,2.9,0,0,1-1.876.537H39.816V29.107h2.237a2.845,2.845,0,0,1,1.876.537,1.876,1.876,0,0,1,.645,1.534A1.855,1.855,0,0,1,43.929,32.683Z" transform="translate(-31.295 -11.999)" fill="#1c1c1c"/>
      <path id="Tracé_8" data-name="Tracé 8" d="M52.96,29.53a8.245,8.245,0,0,0-2.14.283,5.573,5.573,0,0,0-1.788.811l.948,1.847a3.526,3.526,0,0,1,1.192-.616,4.487,4.487,0,0,1,1.427-.225,2.293,2.293,0,0,1,1.573.469,1.68,1.68,0,0,1,.528,1.329H52.608a4.912,4.912,0,0,0-2.951.723,2.384,2.384,0,0,0-.958,1.993,2.564,2.564,0,0,0,.41,1.427,2.7,2.7,0,0,0,1.172.977A4.37,4.37,0,0,0,52.1,38.9a2.931,2.931,0,0,0,2.775-1.27v1.133h2.472v-5.2a3.866,3.866,0,0,0-1.133-3.039A4.816,4.816,0,0,0,52.96,29.53ZM54.709,35.9a1.665,1.665,0,0,1-.743.918,2.344,2.344,0,0,1-1.2.313,1.818,1.818,0,0,1-1.094-.293.956.956,0,0,1-.4-.8c0-.713.537-1.065,1.622-1.065H54.7V35.9Z" transform="translate(-31.562 -12.06)" fill="#1c1c1c"/>
      <path id="Tracé_9" data-name="Tracé 9" d="M62.521,30.869v-1.2H60v9.106h2.638v-4.3a2.554,2.554,0,0,1,.645-1.905,2.443,2.443,0,0,1,1.778-.635c.1,0,.3.01.6.039V29.53a4.766,4.766,0,0,0-1.856.342A2.908,2.908,0,0,0,62.521,30.869Z" transform="translate(-31.821 -12.06)" fill="#1c1c1c"/>
      <path id="Tracé_10" data-name="Tracé 10" d="M71,29.53a8.245,8.245,0,0,0-2.14.283,5.791,5.791,0,0,0-1.788.811l.948,1.847a3.526,3.526,0,0,1,1.192-.616,4.487,4.487,0,0,1,1.427-.225,2.293,2.293,0,0,1,1.573.469,1.68,1.68,0,0,1,.528,1.329h-2.1a4.912,4.912,0,0,0-2.951.723,2.384,2.384,0,0,0-.958,1.993,2.564,2.564,0,0,0,.41,1.427,2.705,2.705,0,0,0,1.172.977,4.339,4.339,0,0,0,1.817.352,2.931,2.931,0,0,0,2.775-1.27v1.133h2.472v-5.2a3.866,3.866,0,0,0-1.133-3.039A4.806,4.806,0,0,0,71,29.53ZM72.739,35.9a1.665,1.665,0,0,1-.743.918,2.344,2.344,0,0,1-1.2.313,1.818,1.818,0,0,1-1.094-.293.956.956,0,0,1-.4-.8c0-.713.537-1.065,1.622-1.065h1.808V35.9Z" transform="translate(-31.975 -12.06)" fill="#1c1c1c"/>
      <path id="Tracé_11" data-name="Tracé 11" d="M84.759,30.556a3.47,3.47,0,0,0-2.726-1.1,4.743,4.743,0,0,0-2.325.576,4.061,4.061,0,0,0-1.632,1.641,5.057,5.057,0,0,0-.6,2.472,4.952,4.952,0,0,0,.6,2.472,4.061,4.061,0,0,0,1.632,1.641,4.743,4.743,0,0,0,2.325.576,3.476,3.476,0,0,0,2.843-1.182V38.7H87.4V26.14H84.759v4.416Zm-.616,5.423a2.2,2.2,0,0,1-1.661.684,2.247,2.247,0,0,1-1.681-.684,2.9,2.9,0,0,1,0-3.674,2.383,2.383,0,0,1,3.342,0,2.871,2.871,0,0,1,0,3.674Z" transform="translate(-32.222 -11.982)" fill="#1c1c1c"/>
      <rect id="Rectangle_1" data-name="Rectangle 1" width="2.638" height="9.106" transform="translate(57.608 17.607)" fill="#1c1c1c"/>
      <path id="Tracé_12" data-name="Tracé 12" d="M91.431,25.36a1.653,1.653,0,0,0-1.182.42,1.385,1.385,0,0,0-.459,1.045,1.37,1.37,0,0,0,.459,1.045,1.857,1.857,0,0,0,2.365-.01,1.445,1.445,0,0,0,.459-1.094,1.309,1.309,0,0,0-.459-1.016A1.68,1.68,0,0,0,91.431,25.36Z" transform="translate(-32.504 -11.964)" fill="#1c1c1c"/>
      <path id="Tracé_13" data-name="Tracé 13" d="M100.918,33.692a17.485,17.485,0,0,0-1.827-.4,7.4,7.4,0,0,1-1.456-.322.616.616,0,0,1-.459-.6.689.689,0,0,1,.42-.606,2.693,2.693,0,0,1,1.27-.234,5.29,5.29,0,0,1,2.628.674l.879-1.876a5.711,5.711,0,0,0-1.583-.586,9.151,9.151,0,0,0-1.925-.215,6.277,6.277,0,0,0-2.257.371,3.175,3.175,0,0,0-1.456,1.045,2.508,2.508,0,0,0-.5,1.534,2.183,2.183,0,0,0,.537,1.593,2.836,2.836,0,0,0,1.26.782,14.492,14.492,0,0,0,1.847.391,7.1,7.1,0,0,1,1.407.283.6.6,0,0,1,.459.557c0,.557-.557.831-1.671.831a6.045,6.045,0,0,1-1.69-.244,5.547,5.547,0,0,1-1.475-.635l-.879,1.9a5.769,5.769,0,0,0,1.729.7,8.906,8.906,0,0,0,2.218.283,6.76,6.76,0,0,0,2.306-.362,3.24,3.24,0,0,0,1.485-1.026,2.374,2.374,0,0,0,.508-1.5,2.169,2.169,0,0,0-.528-1.554A2.663,2.663,0,0,0,100.918,33.692Z" transform="translate(-32.611 -12.06)" fill="#1c1c1c"/>
      <path id="Tracé_14" data-name="Tracé 14" d="M113.445,34.259a4.971,4.971,0,0,0-.616-2.5,4.19,4.19,0,0,0-1.7-1.651,5.384,5.384,0,0,0-4.9.029,4.4,4.4,0,0,0-1.739,1.671,4.685,4.685,0,0,0-.635,2.413,4.61,4.61,0,0,0,.645,2.423,4.392,4.392,0,0,0,1.827,1.671,5.957,5.957,0,0,0,2.726.606,4.713,4.713,0,0,0,3.762-1.475L111.4,35.92a2.937,2.937,0,0,1-1.026.664,3.625,3.625,0,0,1-1.26.215,2.982,2.982,0,0,1-1.729-.489,2.154,2.154,0,0,1-.879-1.339H113.4C113.425,34.523,113.445,34.288,113.445,34.259Zm-6.976-.831a2.183,2.183,0,0,1,.743-1.387,2.245,2.245,0,0,1,1.5-.508,2.217,2.217,0,0,1,1.485.518,2.139,2.139,0,0,1,.743,1.378Z" transform="translate(-32.827 -12.06)" fill="#1c1c1c"/>
      <rect id="Rectangle_2" data-name="Rectangle 2" width="1.954" height="26.078" transform="translate(0 0.557)" fill="#1c1c1c"/>
    </g>
  </g>
</svg>
