<?xml version="1.0" encoding="utf-8"?>
<!-- Generator: Adobe Illustrator 25.2.3, SVG Export Plug-In . SVG Version: 6.00 Build 0)  -->
<svg version="1.1" id="Calque_1" xmlns="http://www.w3.org/2000/svg" xmlns:xlink="http://www.w3.org/1999/xlink" x="0px" y="0px"
	 viewBox="0 0 27.3 27.5" style="enable-background:new 0 0 27.3 27.5;" xml:space="preserve">

<g>
	<path d="M13.7,15L13.7,15c3.3,0,5.9-2.6,5.9-5.9s-2.6-5.9-5.9-5.9c-3.3,0-5.9,2.6-5.9,5.9c0,0,0,0,0,0
		C7.7,12.4,10.4,15,13.7,15z M13.7,5.2L13.7,5.2c2.2,0,3.9,1.8,3.9,3.9c0,2.2-1.8,3.9-3.9,3.9c-2.2,0-3.9-1.8-3.9-3.9
		C9.7,7,11.5,5.2,13.7,5.2z"/>
	<path d="M17.3,15.7c-1.2,0-1.7,0.7-3.7,0.7c-1.9,0-2.5-0.7-3.7-0.7c-3,0-5.5,2.5-5.5,5.5v1c0,1.1,0.9,2,2,2h14.4
		c1.1,0,2-0.9,2-2v-1C22.8,18.2,20.4,15.7,17.3,15.7z M6.4,22.3v-1.1c0-2,1.6-3.5,3.5-3.5c1.2,0.4,2.4,0.6,3.7,0.7
		c1.2-0.1,2.5-0.3,3.7-0.7c2,0,3.5,1.6,3.5,3.5l0,1.1H6.4z"/>
</g>
</svg>
