<?xml version="1.0" encoding="utf-8"?>
<!-- Generator: Adobe Illustrator 25.2.3, SVG Export Plug-In . SVG Version: 6.00 Build 0)  -->
<svg version="1.1" id="Calque_1" xmlns="http://www.w3.org/2000/svg" xmlns:xlink="http://www.w3.org/1999/xlink" x="0px" y="0px"
	 viewBox="0 0 30.2 28.8" style="enable-background:new 0 0 30.2 28.8;" xml:space="preserve">
<g>
	<path d="M26.1,23.1c-0.2,0-0.3-0.1-0.3-0.3c0-0.8,0-1.5,0-2.3c0-0.5-0.3-1-0.8-1.2c-0.4-0.2-0.9-0.2-1.3-0.2
		c-0.6,0-0.6,0.1-0.6-0.6V12c0-0.3,0-0.3-0.3-0.3c-0.5,0-1,0-1.4,0c-0.2,0-0.3,0.1-0.3,0.3c0,1.2,0,2.5,0,3.8v3.1
		c0,0.1,0,0.2-0.2,0.2h-2.3c-0.1,0-0.2,0-0.2-0.2V12c0-0.3,0-0.3-0.3-0.3h-1.4c-0.4,0-0.4,0-0.4,0.4v6.6c0,0.4,0,0.4-0.4,0.4h-1.9
		c-0.3,0-0.3,0-0.3-0.3v-6.8c0-0.1,0-0.3-0.2-0.3h-1.7c-0.1,0-0.2,0.1-0.2,0.2v0.2c0,2.2,0,4.4,0,6.6c0,0.2-0.1,0.3-0.3,0.3
		c-0.7,0-1.4,0-2,0c-0.2,0-0.3-0.1-0.3-0.3c0-0.6,0-1.1,0-1.7V12c0-0.2,0-0.3-0.2-0.3H7.2c-0.1,0-0.2,0.1-0.2,0.2v0.2
		c0,2.2,0,4.4,0,6.6C7,19,7,19.1,6.7,19.1c-0.3,0-0.5,0-0.8,0c0,0-0.1,0-0.2,0c-0.8,0-1.4,0.7-1.4,1.6c0,0.7,0,1.5,0,2.2
		c0,0.2-0.1,0.3-0.2,0.2c-0.1,0-0.3,0-0.4,0c-0.3,0-0.6,0.3-0.6,0.6c0,0.3,0,0.6,0,0.9c0.1,0.3,0.3,0.5,0.6,0.5c0.2,0,0.3,0,0.5,0
		h11c3.7,0,7.3,0,11,0c0.2,0,0.3,0,0.5,0c0.2,0,0.4-0.2,0.5-0.4c0-0.2,0.1-0.3,0.1-0.5C27.2,23.4,27.1,23,26.1,23.1z M23.8,22.7
		c0,0.4,0,0.4-0.4,0.4h-8.3l-8.3,0c-0.3,0-0.3,0-0.3-0.3v-1.3c0-0.3,0-0.3,0.3-0.3h16.5c0.6,0,0.5,0,0.5,0.5V22.7z"/>
	<path d="M25.2,7.5c-3.1-1.2-6.2-2.4-9.4-3.6c-0.5-0.2-1-0.2-1.5,0c-1.2,0.5-2.4,0.9-3.6,1.4C8.8,6,6.9,6.7,4.9,7.5
		C4.6,7.6,4.3,7.9,4.4,8.3v1.2c0,0.7,0.2,0.9,0.9,0.9h9.8v0H25c0.6,0,0.9-0.3,0.9-0.9V8.4C25.8,7.8,25.7,7.7,25.2,7.5z M8.5,8.3
		L8.5,8.3c1-0.4,2-0.8,3-1.2c1.1-0.4,2.3-0.9,3.4-1.3c0.1,0,0.2-0.1,0.4,0c2.1,0.8,4.2,1.6,6.3,2.5c0,0,0.1,0,0.1,0.1H8.5z"/>
</g>
</svg>
