<?xml version="1.0" encoding="utf-8"?>
<!-- Generator: Adobe Illustrator 25.2.3, SVG Export Plug-In . SVG Version: 6.00 Build 0)  -->
<svg version="1.1" id="Calque_1" xmlns="http://www.w3.org/2000/svg" xmlns:xlink="http://www.w3.org/1999/xlink" x="0px" y="0px"
	 viewBox="0 0 29.6 29.6" style="enable-background:new 0 0 29.6 29.6;" xml:space="preserve">
<path d="M14.8,4.6C9.2,4.6,4.6,9.2,4.6,14.8S9.2,25,14.8,25S25,20.4,25,14.8S20.4,4.6,14.8,4.6z M9.9,16.8L7.7,19
	c-1.6-2.6-1.6-5.9,0-8.5l2.2,2.2C9.4,14,9.4,15.5,9.9,16.8z M19,7.7l-2.2,2.2c-1.3-0.6-2.8-0.6-4.1,0l-2.2-2.2
	C13.1,6.2,16.4,6.2,19,7.7z M18.1,14.8c0,1.8-1.5,3.3-3.3,3.3s-3.3-1.5-3.3-3.3c0-1.8,1.5-3.3,3.3-3.3C16.6,11.5,18.1,13,18.1,14.8z
	 M10.5,21.8l2.2-2.2c1.3,0.6,2.8,0.6,4.1,0l2.2,2.2C16.4,23.4,13.1,23.4,10.5,21.8z M21.8,19l-2.2-2.2c0.6-1.3,0.6-2.8,0-4.1
	l2.2-2.2C23.4,13.1,23.4,16.4,21.8,19z"/>
</svg>
