<?xml version="1.0" encoding="utf-8"?>
<!-- Generator: Adobe Illustrator 25.2.3, SVG Export Plug-In . SVG Version: 6.00 Build 0)  -->
<svg version="1.1" id="Calque_1" xmlns="http://www.w3.org/2000/svg" xmlns:xlink="http://www.w3.org/1999/xlink" x="0px" y="0px"
	 viewBox="0 0 33.2 30.8" style="enable-background:new 0 0 33.2 30.8;" xml:space="preserve"
<g>
	<pathd="M17.9,11.6h-6.1c-0.3,0-0.5,0.2-0.5,0.5v4.3c0,0.3,0.2,0.5,0.5,0.5h6.1c0.3,0,0.5-0.2,0.5-0.5v-4.3
		C18.4,11.8,18.2,11.6,17.9,11.6z M16.6,15.2H13v-1.8h3.6V15.2z"/>
	<path d="M17.9,18.1h-6.1c-0.3,0-0.5,0.2-0.5,0.5v1.1c0,0.3,0.2,0.5,0.5,0.5h6.1c0.3,0,0.5-0.2,0.5-0.5v-1.1
		C18.4,18.3,18.2,18.1,17.9,18.1z"/>
	<path d="M28.9,7.2H9.1c-0.9,0-1.7,0.6-2,1.4H5.1C4.5,8.7,4,9.2,4,9.8c0,0,0,0,0,0V22c0,1.4,1.1,2.5,2.5,2.5h22.4
		c0.6,0,1.1-0.5,1.1-1.1V8.3C30,7.7,29.5,7.2,28.9,7.2z M6.9,22c0,0.2-0.2,0.4-0.4,0.4c-0.2,0-0.4-0.2-0.4-0.4V10.8h0.7V22z M9,22.4
		c0-0.1,0-0.2,0-0.4V9.4h18.8l0,13H9z"/>
	<path d="M25.1,18.1h-4.7c-0.3,0-0.5,0.2-0.5,0.5v1.1c0,0.3,0.2,0.5,0.5,0.5h4.7c0.3,0,0.5-0.2,0.5-0.5v-1.1
		C25.7,18.3,25.4,18.1,25.1,18.1z"/>
	<path d="M25.1,11.6h-4.7c-0.3,0-0.5,0.2-0.5,0.5v1.1c0,0.3,0.2,0.5,0.5,0.5h4.7c0.3,0,0.5-0.2,0.5-0.5v-1.1
		C25.7,11.8,25.4,11.6,25.1,11.6z"/>
	<path d="M25.1,14.8h-4.7c-0.3,0-0.5,0.2-0.5,0.5v1.1c0,0.3,0.2,0.5,0.5,0.5h4.7c0.3,0,0.5-0.2,0.5-0.5v-1.1
		C25.7,15.1,25.4,14.8,25.1,14.8z"/>
</g>
</svg>
